<?xml version="1.0" encoding="UTF-8"?>
<svg version="1.1" xmlns="http://www.w3.org/2000/svg" width="128" height="128">
<path d="M0 0 C27.06 0 54.12 0 82 0 C82 3.96 82 7.92 82 12 C79.36 12 76.72 12 74 12 C74.02618408 13.01312256 74.05236816 14.02624512 74.0793457 15.07006836 C74.1705564 18.86622614 74.22750297 22.66228923 74.2746582 26.45922852 C74.29964257 28.09546248 74.33364267 29.73158666 74.37719727 31.36743164 C74.83875604 49.16188008 74.83875604 49.16188008 69 56 C65.58729959 59.49039524 62.89482285 62.05745206 58 63 C58 63.66 58 64.32 58 65 C58.680625 65.20625 59.36125 65.4125 60.0625 65.625 C66.31843247 68.55330882 70.51917653 72.64231527 73.21264648 79.01489258 C74.96732208 85.66742546 74.39995912 92.73299377 74.25 99.5625 C74.22990197 101.15948278 74.21165705 102.75649002 74.1953125 104.35351562 C74.15158265 108.23628881 74.0827407 112.11787022 74 116 C76.64 116 79.28 116 82 116 C82 119.96 82 123.92 82 128 C54.94 128 27.88 128 0 128 C0 124.04 0 120.08 0 116 C2.64 116 5.28 116 8 116 C7.97905273 114.98164062 7.95810547 113.96328125 7.93652344 112.9140625 C7.86365316 109.10480024 7.8180312 105.2955985 7.78027344 101.48583984 C7.76026429 99.8428305 7.73304787 98.19989141 7.69824219 96.55712891 C7.64924695 94.18374212 7.62692496 91.81130351 7.609375 89.4375 C7.58872986 88.71320801 7.56808472 87.98891602 7.54681396 87.24267578 C7.54400182 80.72599715 9.70035249 75.61854394 14 70.72265625 C14.66 70.17480469 15.32 69.62695312 16 69.0625 C16.66 68.49660156 17.32 67.93070312 18 67.34765625 C20.03427724 65.97690303 21.60152111 65.42294605 24 65 C24 64.34 24 63.68 24 63 C23.319375 62.79375 22.63875 62.5875 21.9375 62.375 C14.84664369 59.05587577 10.78153847 54.2585551 8 47 C7.51846626 44.16367514 7.5275612 41.43276746 7.609375 38.5625 C7.61503479 37.79695801 7.62069458 37.03141602 7.62652588 36.24267578 C7.64869165 33.82777979 7.69884461 31.41443777 7.75 29 C7.77009085 27.35028204 7.78833706 25.70054052 7.8046875 24.05078125 C7.84849057 20.03326695 7.91737398 16.01689574 8 12 C5.36 12 2.72 12 0 12 C0 8.04 0 4.08 0 0 Z " fill="#0A0807" transform="translate(23,0)"/>
<path d="M0 0 C27.06 0 54.12 0 82 0 C82 3.96 82 7.92 82 12 C79.36 12 76.72 12 74 12 C74.02618408 13.01312256 74.05236816 14.02624512 74.0793457 15.07006836 C74.1705564 18.86622614 74.22750297 22.66228923 74.2746582 26.45922852 C74.29964257 28.09546248 74.33364267 29.73158666 74.37719727 31.36743164 C74.83875604 49.16188008 74.83875604 49.16188008 69 56 C65.58729959 59.49039524 62.89482285 62.05745206 58 63 C58 63.66 58 64.32 58 65 C58.680625 65.20625 59.36125 65.4125 60.0625 65.625 C66.50770096 68.64190258 70.69742294 72.84841423 73.35546875 79.4765625 C74.5011621 83.96212554 74.3088158 88.41065406 74 93 C72.02 92.505 72.02 92.505 70 92 C69.98582031 91.443125 69.97164063 90.88625 69.95703125 90.3125 C69.50189254 83.03028062 67.21207131 77.85945971 61.72265625 72.97265625 C58.81983444 70.86946398 55.91271096 69.30944266 52.6875 67.75 C51.61886719 67.22921875 50.55023438 66.7084375 49.44921875 66.171875 C48.64097656 65.78515625 47.83273438 65.3984375 47 65 C48 62 48 62 50.328125 60.71875 C51.29234375 60.3165625 52.2565625 59.914375 53.25 59.5 C59.98515728 56.66031207 64.27915847 54.51147268 68 48 C69.26345613 44.29386202 69.22115515 40.48555911 69.31640625 36.609375 C69.35451416 35.31999023 69.39262207 34.03060547 69.43188477 32.70214844 C69.47498779 31.06793945 69.51809082 29.43373047 69.5625 27.75 C69.706875 22.5525 69.85125 17.355 70 12 C50.86 12 31.72 12 12 12 C12.061875 17.445 12.12375 22.89 12.1875 28.5 C12.19418701 30.20220703 12.20087402 31.90441406 12.20776367 33.65820312 C12.27762642 44.79320551 12.27762642 44.79320551 18 54 C23.12853788 58.00513764 29.01859591 60.52159414 35 63 C34.67 63.99 34.34 64.98 34 66 C31.9609375 66.9921875 31.9609375 66.9921875 29.375 67.875 C22.24909317 70.57266473 17.67938851 73.20223973 13.87533569 79.99604797 C12.43886642 83.2846326 12.39632046 86.59499301 12.390625 90.12109375 C12.37499512 90.7824231 12.35936523 91.44375244 12.34326172 92.12512207 C12.29122097 94.56222405 12.27249238 96.99994623 12.25 99.4375 C12.1675 104.903125 12.085 110.36875 12 116 C31.14 116 50.28 116 70 116 C70 110.06 70 104.12 70 98 C71.32 97.67 72.64 97.34 74 97 C74 103.27 74 109.54 74 116 C76.64 116 79.28 116 82 116 C82 119.96 82 123.92 82 128 C54.94 128 27.88 128 0 128 C0 124.04 0 120.08 0 116 C2.64 116 5.28 116 8 116 C7.97905273 114.98164062 7.95810547 113.96328125 7.93652344 112.9140625 C7.86365316 109.10480024 7.8180312 105.2955985 7.78027344 101.48583984 C7.76026429 99.8428305 7.73304787 98.19989141 7.69824219 96.55712891 C7.64924695 94.18374212 7.62692496 91.81130351 7.609375 89.4375 C7.58872986 88.71320801 7.56808472 87.98891602 7.54681396 87.24267578 C7.54400182 80.72599715 9.70035249 75.61854394 14 70.72265625 C14.66 70.17480469 15.32 69.62695312 16 69.0625 C16.66 68.49660156 17.32 67.93070312 18 67.34765625 C20.03427724 65.97690303 21.60152111 65.42294605 24 65 C24 64.34 24 63.68 24 63 C23.319375 62.79375 22.63875 62.5875 21.9375 62.375 C14.84664369 59.05587577 10.78153847 54.2585551 8 47 C7.51846626 44.16367514 7.5275612 41.43276746 7.609375 38.5625 C7.61503479 37.79695801 7.62069458 37.03141602 7.62652588 36.24267578 C7.64869165 33.82777979 7.69884461 31.41443777 7.75 29 C7.77009085 27.35028204 7.78833706 25.70054052 7.8046875 24.05078125 C7.84849057 20.03326695 7.91737398 16.01689574 8 12 C5.36 12 2.72 12 0 12 C0 8.04 0 4.08 0 0 Z " fill="#080B0D" transform="translate(23,0)"/>
<path d="M0 0 C5.15529523 3.48001465 8.13118035 6.73175263 9.64453125 12.78515625 C9.64453125 21.03515625 9.64453125 29.28515625 9.64453125 37.78515625 C-6.85546875 37.78515625 -23.35546875 37.78515625 -40.35546875 37.78515625 C-40.35546875 9.47686609 -40.35546875 9.47686609 -35.84765625 3.9296875 C-24.56884517 -5.36034772 -13.09390147 -7.25913542 0 0 Z " fill="#090909" transform="translate(79.35546875,74.21484375)"/>
<path d="M0 0 C19.14 0 38.28 0 58 0 C58.061875 5.135625 58.12375 10.27125 58.1875 15.5625 C58.22846802 17.97284546 58.22846802 17.97284546 58.27026367 20.43188477 C58.27775635 21.71377686 58.28524902 22.99566895 58.29296875 24.31640625 C58.3086792 25.62037354 58.32438965 26.92434082 58.34057617 28.26782227 C57.72703884 34.99122388 55.2251413 39.60613118 50 44 C45.49091518 46.83905341 40.92691048 48.98901613 36 51 C36 51.66 36 52.32 36 53 C36.94101563 53.42410156 37.88203125 53.84820312 38.8515625 54.28515625 C47.40915607 58.26716451 54.12676341 61.9284722 58 71 C58.34931127 73.36182053 58.50034164 75.6927185 58.65625 78.07421875 C58.7696875 78.70972656 58.883125 79.34523438 59 80 C59.99 80.495 59.99 80.495 61 81 C61 82.32 61 83.64 61 85 C60.01 85.495 60.01 85.495 59 86 C58.67 91.94 58.34 97.88 58 104 C38.86 104 19.72 104 0 104 C-0.103125 98.555 -0.20625 93.11 -0.3125 87.5 C-0.35802002 85.79779297 -0.40354004 84.09558594 -0.45043945 82.34179688 C-0.66457207 68.78447644 -0.66457207 68.78447644 3.62963867 63.37548828 C8.84392319 58.14169548 15.05102953 55.27420852 22 53 C22 52.34 22 51.68 22 51 C21.05640625 50.67128906 21.05640625 50.67128906 20.09375 50.3359375 C11.81034869 47.26708702 5.27863863 43.91948494 0.85421753 35.9962616 C-0.55898914 32.69367168 -0.49381201 29.40006138 -0.390625 25.87890625 C-0.38659668 25.2175769 -0.38256836 24.55624756 -0.37841797 23.87487793 C-0.3577081 21.43713074 -0.30186442 18.99978339 -0.25 16.5625 C-0.12625 8.3640625 -0.12625 8.3640625 0 0 Z M4 4 C2.2119682 22.31646803 2.2119682 22.31646803 8.5078125 37.85546875 C15.67697009 43.76049952 22.42992244 46.84537032 31.8671875 46.51953125 C39.48777384 45.25576818 47.31692923 41.24409437 52 35 C55.31761569 26.10124548 55.31761569 26.10124548 54 4 C37.5 4 21 4 4 4 Z M5.98828125 69.2890625 C1.09663173 77.75760988 4 93.66362803 4 100 C20.5 100 37 100 54 100 C55.7880318 81.68353197 55.7880318 81.68353197 49.4921875 66.14453125 C42.32719914 60.24293456 35.56450971 57.13881446 26.12890625 57.48828125 C18.03411389 58.81214866 11.08065389 62.88979776 5.98828125 69.2890625 Z " fill="#C3D8E8" transform="translate(35,12)"/>
<path d="M0 0 C1.26070312 0.38542969 2.52140625 0.77085938 3.8203125 1.16796875 C8.41015625 2.58398438 8.41015625 2.58398438 13 4 C13 8.29 13 12.58 13 17 C-1.52 17 -16.04 17 -31 17 C-31 12.71 -31 8.42 -31 4 C-27.71861042 2.73397584 -24.43032367 1.5130185 -21.125 0.3125 C-19.74828125 -0.22600586 -19.74828125 -0.22600586 -18.34375 -0.77539062 C-11.19665111 -3.31714058 -6.94640188 -2.80393641 0 0 Z " fill="#E3BC93" transform="translate(73,92)"/>
<path d="M0 0 C13.86 0 27.72 0 42 0 C40.8344716 10.48975557 40.8344716 10.48975557 37.69921875 13.71484375 C31.81921577 18.16201841 25.02695744 19.74229405 17.74609375 19.453125 C11.76345118 18.46594642 6.95202601 15.71397406 2.4375 11.75 C1 9 1 9 0 0 Z " fill="#EFC59A" transform="translate(43,35)"/>
<path d="M0 0 C14.52 0 29.04 0 44 0 C44 3.96 44 7.92 44 12 C29.48 12 14.96 12 0 12 C0 8.04 0 4.08 0 0 Z " fill="#DEE9F1" transform="translate(42,19)"/>
<path d="M0 0 C3.86437756 2.28381232 6.15858548 5.26248345 8.16796875 9.28125 C8.20796075 11.28085012 8.21143674 13.28172242 8.16796875 15.28125 C2.76407562 14.19536131 -2.35066648 12.85832985 -7.49609375 10.8671875 C-13.72446942 9.30488591 -18.8297976 10.64050229 -24.64453125 12.78125 C-31.63777449 15.28125 -31.63777449 15.28125 -33.83203125 15.28125 C-34.33807639 9.96777603 -33.21636886 7.37807973 -29.83203125 3.28125 C-20.48541708 -3.87785873 -10.74947382 -4.78513938 0 0 Z " fill="#DFEAF2" transform="translate(76.83203125,76.71875)"/>
<path d="M0 0 C1.32 0 2.64 0 4 0 C4.495 0.99 4.495 0.99 5 2 C17.87 2.495 17.87 2.495 31 3 C31 4.32 31 5.64 31 7 C6.58 7 -17.84 7 -43 7 C-43 5.68 -43 4.36 -43 3 C-29.14 3 -15.28 3 -1 3 C-0.67 2.01 -0.34 1.02 0 0 Z " fill="#3B99E5" transform="translate(70,1)"/>
<path d="M0 0 C24.42 0 48.84 0 74 0 C74 1.32 74 2.64 74 4 C57.5 4 41 4 24 4 C23.67 4.99 23.34 5.98 23 7 C19.125 6.125 19.125 6.125 18 5 C16.65984779 4.84417697 15.31241097 4.74955858 13.96484375 4.68359375 C12.75151367 4.62075195 12.75151367 4.62075195 11.51367188 4.55664062 C10.66353516 4.51732422 9.81339844 4.47800781 8.9375 4.4375 C8.08349609 4.39431641 7.22949219 4.35113281 6.34960938 4.30664062 C4.23327963 4.20023298 2.11666187 4.09958269 0 4 C0 2.68 0 1.36 0 0 Z " fill="#3B99E5" transform="translate(27,120)"/>
<path d="M0 0 C0.66 0.33 1.32 0.66 2 1 C2 2.65 2 4.3 2 6 C2.99 6 3.98 6 5 6 C5 6.99 5 7.98 5 9 C3.68 9 2.36 9 1 9 C1 10.32 1 11.64 1 13 C13.87 13 26.74 13 40 13 C40 9.04 40 5.08 40 1 C40.33 1 40.66 1 41 1 C41 5.29 41 9.58 41 14 C26.48 14 11.96 14 -3 14 C-3 9.71 -3 5.42 -3 1 C-2.01 0.67 -1.02 0.34 0 0 Z " fill="#BE9771" transform="translate(45,95)"/>
<path d="M0 0 C0.33 0.66 0.66 1.32 1 2 C0.69916504 2.7118042 0.39833008 3.4236084 0.08837891 4.15698242 C-1.26971828 7.70454675 -1.32334282 10.6931745 -1.4140625 14.48828125 C-1.43342865 15.19147995 -1.4527948 15.89467865 -1.4727478 16.6191864 C-1.53220183 18.85017019 -1.57879049 21.08120654 -1.625 23.3125 C-1.66321137 24.83140186 -1.70226492 26.35028278 -1.7421875 27.86914062 C-1.83787416 31.57923467 -1.92203072 35.28948651 -2 39 C-2.33 39 -2.66 39 -3 39 C-3.07435222 34.24946489 -3.12869691 29.49927113 -3.16479492 24.74829102 C-3.17984876 23.13332211 -3.20029648 21.51839387 -3.22631836 19.90356445 C-3.26285286 17.57753445 -3.27976015 15.25204659 -3.29296875 12.92578125 C-3.30845261 12.20787918 -3.32393646 11.48997711 -3.33988953 10.75032043 C-3.34136981 6.30589159 -2.64825145 3.58292843 0 0 Z " fill="#ABD0F1" transform="translate(38,77)"/>
<path d="M0 0 C0.99 0 1.98 0 3 0 C3.09796875 0.67546875 3.1959375 1.3509375 3.296875 2.046875 C4.37079086 8.95967405 4.37079086 8.95967405 9 14 C8.67 14.66 8.34 15.32 8 16 C1.171875 10.8046875 1.171875 10.8046875 0 6 C-0.125 2.6875 -0.125 2.6875 0 0 Z " fill="#F2B581" transform="translate(43,35)"/>
<path d="M0 0 C0.66 0.33 1.32 0.66 2 1 C2 2.65 2 4.3 2 6 C2.99 6 3.98 6 5 6 C5 6.99 5 7.98 5 9 C3.68 9 2.36 9 1 9 C0.67 10.32 0.34 11.64 0 13 C-0.33 9.7 -0.66 6.4 -1 3 C-1.33 6.63 -1.66 10.26 -2 14 C-2.33 14 -2.66 14 -3 14 C-3 9.71 -3 5.42 -3 1 C-2.01 0.67 -1.02 0.34 0 0 Z " fill="#927052" transform="translate(45,95)"/>
<path d="M0 0 C0.66 0.33 1.32 0.66 2 1 C1.21625 1.474375 0.4325 1.94875 -0.375 2.4375 C-3.59977363 5.58549331 -3.86243552 7.73107446 -4.4453125 12.07421875 C-4.62835938 12.70972656 -4.81140625 13.34523438 -5 14 C-5.99 14.33 -6.98 14.66 -8 15 C-8.50537432 9.69356959 -7.30655751 7.13319688 -4 3 C-1.75 1.125 -1.75 1.125 0 0 Z " fill="#C5D8E7" transform="translate(51,77)"/>
<path d="M0 0 C0.99 0 1.98 0 3 0 C3 3.63 3 7.26 3 11 C2.01 11 1.02 11 0 11 C0 7.37 0 3.74 0 0 Z " fill="#D4E8F7" transform="translate(43,20)"/>
</svg>
